<?xml version="1.0" encoding="UTF-8"?>
<svg width="40" height="40" viewBox="0 0 40 40" fill="none" xmlns="http://www.w3.org/2000/svg">
  <path d="M20 40C31.0457 40 40 31.0457 40 20C40 8.9543 31.0457 0 20 0C8.9543 0 0 8.9543 0 20C0 31.0457 8.9543 40 20 40Z" fill="#DA552F"/>
  <path d="M22.2222 20H17.7778V15.5556H22.2222C23.7778 15.5556 25 16.7778 25 18.3333C25 19.8889 23.7778 21.1111 22.2222 21.1111H17.7778V25H15V13.3333H22.2222C25.2222 13.3333 27.7778 15.8889 27.7778 18.8889C27.7778 21.8889 25.2222 24.4444 22.2222 24.4444H20V20H22.2222Z" fill="white"/>
</svg> 